<svg id="Component_25_1" data-name="Component 25 – 1" xmlns="http://www.w3.org/2000/svg" width="400" height="80" viewBox="0 0 400 80">
  <g id="Apple_button" data-name="Apple button" transform="translate(-4823 -994.5)">
    <rect id="Rectangle_6" data-name="Rectangle 6" width="400" height="80" rx="40" transform="translate(4823 994.5)" fill="#231f20"/>
  </g>
  <text id="Sign_in_with_Apple" data-name="Sign in with Apple" transform="translate(225.373 49.299)" fill="#fff" font-size="28" font-family="Roboto-Medium, Roboto" font-weight="500"><tspan x="-112.144" y="0">Sign in with Apple</tspan></text>
  <g id="Apple_Icon" data-name="Apple Icon" transform="translate(-4823 -994.5)">
    <path id="Path_10" data-name="Path 10" d="M4887.468,1009.806h.314a9.5,9.5,0,0,1-2.39,7.151,7.413,7.413,0,0,1-6.52,3.059,9.215,9.215,0,0,1,2.432-6.928A10.509,10.509,0,0,1,4887.468,1009.806Z" fill="#fff" fill-rule="evenodd"/>
    <path id="Path_11" data-name="Path 11" d="M4897,1042.321v.088a25.733,25.733,0,0,1-3.689,7.113c-1.405,1.934-3.131,4.538-6.208,4.538-2.658,0-4.424-1.708-7.149-1.755-2.885-.049-4.468,1.432-7.106,1.8h-.9c-1.935-.28-3.5-1.81-4.636-3.194a27.991,27.991,0,0,1-6.428-16.1v-1.982c.2-4.828,2.55-8.755,5.667-10.655a9.583,9.583,0,0,1,6.43-1.489,16.074,16.074,0,0,1,3.148.9,8.7,8.7,0,0,0,3.145.943,7.565,7.565,0,0,0,2.209-.673c2.17-.786,4.3-1.684,7.1-1.262a9.861,9.861,0,0,1,7.243,4.318,9.292,9.292,0,0,0-4.723,9.22A9.518,9.518,0,0,0,4897,1042.321Z" fill="#fff" fill-rule="evenodd"/>
  </g>
</svg>
