<svg id="Group_1046" data-name="Group 1046" xmlns="http://www.w3.org/2000/svg" width="751" height="1334" viewBox="0 0 751 1334">
  <rect id="Background" width="751" height="1334" fill="#80d25b"/>
  <g id="Atom_" data-name="Atom " transform="translate(21.454 1073)">
    <g id="Atom_2" data-name="Atom " transform="translate(-4649.474 -1111.793)" opacity="0.5">
      <circle id="Ellipse_28" data-name="Ellipse 28" cx="16.237" cy="16.237" r="16.237" transform="translate(4850.148 1294.421)" fill="#ddd"/>
      <circle id="Ellipse_29" data-name="Ellipse 29" cx="10.464" cy="10.464" r="10.464" transform="translate(4785.902 1258.327)" fill="#ddd"/>
      <circle id="Ellipse_30" data-name="Ellipse 30" cx="11.907" cy="11.907" r="11.907" transform="translate(4784.459 1334.843)" fill="#ddd"/>
      <circle id="Ellipse_31" data-name="Ellipse 31" cx="6.134" cy="6.134" r="6.134" transform="translate(4723.822 1293.696)" fill="#ddd"/>
      <circle id="Ellipse_32" data-name="Ellipse 32" cx="11.907" cy="11.907" r="11.907" transform="translate(4858.087 1204.189)" fill="#ddd"/>
      <circle id="Ellipse_33" data-name="Ellipse 33" cx="7.217" cy="7.217" r="7.217" transform="translate(4785.18 1166.652)" fill="#ddd"/>
      <circle id="Ellipse_34" data-name="Ellipse 34" cx="11.907" cy="11.907" r="11.907" transform="translate(4715.162 1111.793)" fill="#ddd"/>
      <circle id="Ellipse_35" data-name="Ellipse 35" cx="11.907" cy="11.907" r="11.907" transform="translate(4649.474 1168.819)" fill="#ddd"/>
      <circle id="Ellipse_36" data-name="Ellipse 36" cx="11.907" cy="11.907" r="11.907" transform="translate(4710.109 1181.09)" fill="#ddd"/>
      <path id="Path_9" data-name="Path 9" d="M4730.082,1300.14l68.6,45.983,69.057-35.652,2.335-94.216-78.235-42.882-64.9-49.875-65.965,57.391,61.008,11.942,75.357,78.009-68.031,28.145,136.44,10.244-67.939-41.535-.666,81.131L4723.5,1192.2l4.124-71.348,70.07,145.117,76.565-51.742-149.246-22.652,69.855-19.457-66.648,128.5L4659.906,1178.3" fill="none" stroke="#ddd" stroke-miterlimit="10" stroke-width="1"/>
    </g>
  </g>
</svg>
